<?xml version="1.0" standalone="no"?>
<!DOCTYPE svg PUBLIC "-//W3C//DTD SVG 1.1//EN" "http://www.w3.org/Graphics/SVG/1.1/DTD/svg11.dtd">
<svg t="1679582600777" class="icon" viewBox="0 0 1024 1024" version="1.1"
  xmlns="http://www.w3.org/2000/svg" p-id="9323"
  xmlns:xlink="http://www.w3.org/1999/xlink" width="128" height="128">
  <path fill="currentColor" d="M513 416 512 416l0 0C512.4 416 512.6 416 513 416z" p-id="9324"></path>
  <path fill="currentColor" d="M737 320 640 320c0 0 52 34 63.2 96L736 416l1 0c35.2 0 63 27.8 63 63l0 64c0 35.2-27.8 65-63 65l-224 0c-35.2 0-65-29.8-65-65L448 480l-96 0 0 63c0 23 5 45 13.8 65 25.2 56.4 81.8 96 147.2 96l224 0c88.4 0 159-72.6 159-161l0-64C896 390.6 825.4 320 737 320z" p-id="9325"></path>
  <path fill="currentColor" d="M659.2 416c-24.2-56.6-80.2-96-146.2-96l-224 0c-88.4 0-161 70.6-161 159l0 64c0 88.4 72.6 161 161 161L384 704c0 0-51.6-34-64.2-96l-30.8 0c-35.2 0-65-29.8-65-65l0-64c0-35.2 29.8-63 65-63L512 416l1 0c35.2 0 63 27.8 63 63l0 64c0 0.4 0 0.6 0 1l96 0c0-0.4 0-0.6 0-1l0-64C672 456.6 667.4 435.2 659.2 416z" p-id="9326"></path>
</svg>