<?xml version="1.0" standalone="no"?><!DOCTYPE svg PUBLIC "-//W3C//DTD SVG 1.1//EN" "http://www.w3.org/Graphics/SVG/1.1/DTD/svg11.dtd"><svg t="1679582442707" class="icon" viewBox="0 0 1024 1024" version="1.1" xmlns="http://www.w3.org/2000/svg" p-id="5311" xmlns:xlink="http://www.w3.org/1999/xlink" width="128" height="128"><path d="M813.9776 468.6336c-22.6304 37.1712-60.3136 65.6384-105.3696 78.7456l-3.4304 1.024a77.9264 77.9264 0 0 1-21.1968 3.1744c-31.232 0-48.8448-21.0944-39.424-47.1552 6.9632-19.0464 25.1392-35.1232 47.36-42.5472 34.4064-12.544 58.4704-41.1648 58.4704-74.496 0-44.9024-43.6736-81.2544-97.536-81.2544s-97.4848 36.352-97.4848 81.2544v249.2416c0 59.904-34.7648 112.4864-86.7328 142.2336a196.0448 196.0448 0 0 1-97.4848 25.7024c-101.5808 0-184.2176-75.3152-184.2176-167.936 0-29.4912 8.3968-57.1904 23.0912-81.2544 22.7328-37.376 60.6208-65.8944 105.984-78.8992l0.1024-0.0512c7.68-2.4064 15.616-3.6864 23.3984-3.6864 31.3856 0 49.152 21.1968 39.6288 47.3088-6.4512 17.7664-23.8592 33.024-44.0832 41.1136a110.6944 110.6944 0 0 0-7.1168 2.6624c-32.1536 13.312-54.3232 40.8576-54.3232 72.8064 0 44.9024 43.6736 81.2544 97.536 81.2544s97.4848-36.352 97.4848-81.2544V387.3792c0-59.904 34.7648-112.4864 86.7328-142.2336a196.0448 196.0448 0 0 1 97.4848-25.7024c101.5808 0 184.2176 75.3152 184.2176 167.936 0 29.4912-8.3968 57.1904-23.0912 81.2544M512 0C229.2224 0 0 229.2224 0 512s229.2224 512 512 512 512-229.2224 512-512S794.7776 0 512 0" fill="#07c160" p-id="5312"></path></svg>