<?xml version="1.0" standalone="no"?><!DOCTYPE svg PUBLIC "-//W3C//DTD SVG 1.1//EN" "http://www.w3.org/Graphics/SVG/1.1/DTD/svg11.dtd"><svg t="1759070155872" class="icon" viewBox="0 0 1024 1024" version="1.1" xmlns="http://www.w3.org/2000/svg" p-id="11560" xmlns:xlink="http://www.w3.org/1999/xlink" width="200" height="200"><path d="M511.52 64.57c-247.23 0-447.65 200.2-447.65 447.17s200.42 447.17 447.65 447.17 447.65-200.2 447.65-447.17S758.75 64.57 511.52 64.57zM776.3 473.73a163.693 163.693 0 0 1-92.16 68.69q-1.45 0-2.91 1.51c-5.88 1.4-11.75 2.91-19.03 2.91-27.81 0-42.41-19.01-35.14-40.92 5.87-16.09 21.93-30.74 40.96-36.56 30.78-11.74 51.26-36.56 51.26-65.79 0-39.4-38.05-71.55-84.89-71.55s-84.89 32.14-84.89 71.55v217.77c0 52.54-30.66 97.88-75.99 124.2a167.084 167.084 0 0 1-84.89 21.91c-89.19 0-160.93-65.73-160.93-146.11 0-26.27 7.27-49.69 20.48-71.61a163.715 163.715 0 0 1 92.11-68.75c7.33-1.4 13.15-2.85 20.48-2.85 27.81 0 42.41 19.01 35.14 40.92-5.87 16.04-20.48 29.18-38.05 36.5a11.11 11.11 0 0 0-5.82 2.9c-27.86 11.74-46.89 35.16-46.89 64.34 0 39.46 38.05 71.55 84.89 71.55s84.83-32.09 84.83-71.55V405.07c0-52.65 30.78-97.93 76.1-124.2 25.8-14.76 55.1-22.35 84.83-21.97 89.25 0 160.93 65.79 160.93 146.11a129.79 129.79 0 0 1-20.48 68.75l0.06-0.06z m0 0" p-id="11561" fill="#07C160"></path></svg>