<svg width="145" height="107" viewBox="0 0 145 107" fill="none" xmlns="http://www.w3.org/2000/svg">
<path d="M79.49 61.235C77.28 57.605 73.6 54.825 69.2 53.545L68.865 53.445C68.1926 53.2468 67.496 53.1425 66.795 53.135C63.745 53.135 62.025 55.195 62.945 57.74C63.625 59.6 65.4 61.17 67.57 61.895C70.93 63.12 73.28 65.915 73.28 69.17C73.28 73.555 69.015 77.105 63.755 77.105C58.495 77.105 54.235 73.555 54.235 69.17V44.83C54.235 38.98 50.84 33.845 45.765 30.94C42.8647 29.2877 39.5829 28.4225 36.245 28.43C26.325 28.43 18.255 35.785 18.255 44.83C18.255 47.71 19.075 50.415 20.51 52.765C22.73 56.415 26.43 59.2 30.86 60.47L30.87 60.475C31.62 60.71 32.395 60.835 33.155 60.835C36.22 60.835 37.955 58.765 37.025 56.215C36.395 54.48 34.695 52.99 32.72 52.2C32.4854 52.1213 32.2536 52.0346 32.025 51.94C28.885 50.64 26.72 47.95 26.72 44.83C26.72 40.445 30.985 36.895 36.245 36.895C41.505 36.895 45.765 40.445 45.765 44.83V69.17C45.765 75.02 49.16 80.155 54.235 83.06C57.1353 84.7123 60.4171 85.5775 63.755 85.57C73.675 85.57 81.745 78.215 81.745 69.17C81.745 66.29 80.925 63.585 79.49 61.235ZM50 107C22.385 107 0 84.615 0 57C0 29.385 22.385 7 50 7C77.615 7 100 29.385 100 57C100 84.615 77.615 107 50 107Z" fill="#07C160"/>
<path fill-rule="evenodd" clip-rule="evenodd" d="M99.7113 49.9997C111.646 50.0505 119.132 44.5263 122.171 33.4291C117.667 38.964 112.436 41.0278 106.476 39.6124C103.075 38.8039 100.652 36.4956 97.973 33.9381C93.6048 29.7735 88.5502 24.952 77.4593 24.9048C65.5242 24.854 58.0385 30.3781 55 41.4753C59.5019 35.9404 64.7344 33.8787 70.6929 35.292C74.0938 36.1005 76.5164 38.4088 79.1976 40.9683C83.5658 45.1309 88.6204 49.9524 99.7113 49.9997ZM122.207 25.0952C134.145 25.1461 141.628 19.6259 144.667 8.52672C140.165 14.0636 134.932 16.1253 128.972 14.71C125.573 13.9035 123.15 11.5932 120.469 9.03773C116.101 4.86911 111.046 0.0475576 99.9554 0.000347349C88.0203 -0.0504564 80.5346 5.47172 77.4961 16.5709C82.0002 11.034 87.2304 8.97224 93.1911 10.3876C96.592 11.1941 99.0124 13.5044 101.694 16.0619C106.062 20.2265 111.116 25.048 122.207 25.0952Z" fill="#0EA5E9"/>
</svg>
