<?xml version="1.0" encoding="UTF-8"?>
<svg id="_图层_2" data-name="图层 2" xmlns="http://www.w3.org/2000/svg" viewBox="0 0 202.04 56.14">
  <defs>
    <style>
      .cls-1 {
        fill: #836eff;
      }
    </style>
  </defs>
  <g id="_图层_1-2" data-name="图层 1">
    <g>
      <g>
        <g>
          <polygon class="cls-1" points="183.78 50.2 177.55 50.2 182.66 27.42 188.89 27.42 183.78 50.2"/>
          <polygon class="cls-1" points="191.19 50.2 186.83 50.2 191.94 27.42 196.3 27.42 191.19 50.2"/>
          <polygon class="cls-1" points="196.93 50.2 194.62 50.2 199.73 27.42 202.04 27.42 196.93 50.2"/>
        </g>
        <g>
          <path d="M62.27,23.5l3.82-17.12,4.48,.04-3.82,17.12-4.48-.04Z"/>
          <path d="M70.05,23.57l3.95-17.68h.43s9.47,10.09,9.47,10.09l2.11-9.43,4.13,.04-3.97,17.77h-.39s-9.51-10.09-9.51-10.09l-2.08,9.34-4.13-.04Z"/>
          <path d="M89.94,23.74l3.82-17.12,11.67,.1-.78,3.48-7.22-.06-.76,3.41,6.45,.05-.77,3.46-6.45-.05-1.51,6.77-4.46-.04Z"/>
          <path d="M104.64,23.86l3.82-17.12,4.48,.04-3.82,17.12-4.48-.04Z"/>
          <path d="M112.26,23.93l3.95-17.68h.43s9.47,10.09,9.47,10.09l2.11-9.43,4.13,.04-3.97,17.77h-.39s-9.11-10.09-9.11-10.09l-2.11,9.34-4.51-.04Z"/>
          <path d="M132.07,24.1l3.82-17.12,4.48,.04-3.82,17.12-4.48-.04Z"/>
        </g>
        <g>
          <path class="cls-1" d="M69.45,27.44l-.99,4.44,6.53,.06-.02,2.3-4.98-.04-.03,3.54,4.42,.04-.02,2.24-4.42-.04-.03,3.74,4.98,.04-.02,2.3-7.61-.07,.08-9.04-2.95,13.31,35.66-.02,1.76-4.24-4.08-10.94,2.95,.03,2.62,7.84,2.79-7.79,2.8,.02-6.05,15.09,71.94-.03,5.1-22.77H69.45Zm17.51,18.72l-2.65-.02v-1.64c-.61,.96-1.8,1.8-3.46,1.79-2.63-.02-4.72-2.36-4.69-5.86,.03-3.49,2.15-5.72,4.8-5.7,1.67,.01,2.81,.87,3.42,1.81v-1.6s2.66,.02,2.66,.02l-.1,11.19Zm6.09,.23c-2.61-.02-4.42-1.67-4.52-3.76l2.65,.02c.09,.85,.81,1.5,1.87,1.51,1.03,0,1.6-.49,1.61-1.14,.02-2-5.88-.78-5.84-4.88,.02-1.86,1.57-3.34,4.14-3.32,2.52,.02,4.03,1.51,4.16,3.73l-2.52-.02c-.07-.87-.7-1.46-1.74-1.47-.98,0-1.49,.41-1.49,1.06-.02,2.04,5.76,.82,5.8,4.92-.02,1.92-1.59,3.36-4.12,3.34Zm20.67,.18c-2.61-.02-4.42-1.67-4.52-3.76l2.65,.02c.09,.85,.81,1.5,1.87,1.51,1.03,0,1.6-.49,1.61-1.14,.02-2-5.88-.78-5.84-4.88,.02-1.86,1.57-3.34,4.14-3.32,2.52,.02,4.03,1.51,4.16,3.73l-2.52-.02c-.07-.87-.7-1.46-1.74-1.47-.98,0-1.49,.41-1.49,1.06-.02,2.04,5.76,.82,5.8,4.92-.02,1.92-1.59,3.36-4.12,3.34Zm15.43-4.8l-7.61-.07c.12,1.66,1.16,2.6,2.48,2.61,1.13,0,1.75-.59,2.1-1.34l2.84,.02c-.58,2.06-2.32,3.68-4.9,3.66-3.03-.03-5.2-2.31-5.17-5.82,.03-3.54,2.19-5.76,5.27-5.73,3.01,.03,5.11,2.24,5.08,5.58,0,.36-.02,.73-.08,1.09Zm11.65,4.85l-2.65-.02v-1.64c-.61,.96-1.8,1.8-3.46,1.79-2.63-.02-4.72-2.36-4.69-5.86,.03-3.49,2.15-5.72,4.8-5.7,1.67,.01,2.81,.87,3.42,1.81v-1.6s2.66,.02,2.66,.02l-.1,11.19Zm8-8.32h-.7c-1.56-.02-2.51,.62-2.52,2.78l-.05,5.58-2.63-.02,.1-11.19,2.63,.02v1.74c.65-1.15,1.75-1.88,3.2-1.87l-.03,2.97Zm5.7,6.19c1.09,0,1.77-.51,2.1-1.52l2.84,.02c-.58,2.38-2.34,3.94-4.94,3.92-3.01-.03-5.13-2.31-5.1-5.82,.03-3.52,2.19-5.76,5.2-5.73,2.59,.02,4.33,1.49,4.87,4l-2.84-.02c-.29-.95-.98-1.56-2.07-1.57-1.47-.01-2.45,1.17-2.47,3.35-.02,2.18,.95,3.36,2.41,3.37Zm16.29,2.38l-2.63-.02,.05-6.18c.02-1.8-.9-2.78-2.29-2.79-1.43-.01-2.36,.95-2.37,2.75l-.05,6.18-2.63-.02,.13-14.95,2.63,.02-.04,5.15c.68-.94,1.85-1.54,3.25-1.53,2.35,.02,4.04,1.73,4.02,4.82l-.06,6.56Z"/>
          <path class="cls-1" d="M124.06,37.43c-1.26-.01-2.26,.85-2.48,2.38l4.94,.04c-.03-1.47-1.11-2.41-2.46-2.43Z"/>
          <path class="cls-1" d="M135.47,37.69c-1.41-.01-2.75,1.11-2.77,3.23s1.31,3.35,2.71,3.36c1.45,.01,2.77-1.15,2.79-3.27,.02-2.12-1.29-3.3-2.73-3.32Z"/>
          <path class="cls-1" d="M81.62,37.23c-1.41-.01-2.75,1.11-2.77,3.23s1.31,3.34,2.71,3.36c1.45,.01,2.77-1.15,2.79-3.27,.02-2.12-1.29-3.3-2.73-3.32Z"/>
        </g>
      </g>
      <g>
        <path d="M28.07,56.14C12.59,56.14,0,43.55,0,28.07S12.59,0,28.07,0s28.07,12.59,28.07,28.07-12.59,28.07-28.07,28.07Zm0-53.1C14.27,3.04,3.04,14.27,3.04,28.07s11.23,25.03,25.03,25.03,25.03-11.23,25.03-25.03S41.87,3.04,28.07,3.04Z"/>
        <g>
          <path d="M43.92,12.87c-2.32-2.53-5.23-4.52-8.5-5.75,0,.01,0,.02,0,.02l-3.9,18.05-13.93-9.9-1.94,9.26,22.46,15.72,5.82-27.4"/>
          <path d="M23.17,34.84l-8.44-5.95-2.98,13.81c2.34,2.49,5.26,4.43,8.54,5.62l2.88-13.48Z"/>
        </g>
      </g>
    </g>
  </g>
</svg>