<svg xmlns="http://www.w3.org/2000/svg" viewBox="0 0 24 24">
  <path fill="#07C160" d="m15.84 12.691-.066.02a1.5 1.5 0 0 1-.414.062c-.61 0-.954-.412-.77-.921.136-.372.491-.686.925-.831.672-.245 1.142-.804 1.142-1.455 0-.877-.853-1.587-1.905-1.587s-1.905.71-1.905 1.587v4.868c0 1.17-.678 2.197-1.693 2.778a3.83 3.83 0 0 1-1.904.502c-1.984 0-3.598-1.471-3.598-3.28 0-.576.164-1.117.451-1.587.444-.73 1.184-1.287 2.07-1.541q.23-.073.46-.073c.612 0 .958.414.773.924-.126.347-.466.645-.861.803a2 2 0 0 0-.139.052c-.628.26-1.061.798-1.061 1.422 0 .877.853 1.587 1.905 1.587s1.904-.71 1.904-1.587V9.566c0-1.17.679-2.197 1.694-2.778a3.83 3.83 0 0 1 1.904-.502c1.984 0 3.598 1.471 3.598 3.28a3.04 3.04 0 0 1-.451 1.587c-.442.726-1.178 1.282-2.058 1.538M2.002 12c0 5.523 4.477 10 10 10s10-4.477 10-10s-4.477-10-10-10s-10 4.477-10 10"/>
</svg>
