<svg width="36" height="35" viewBox="0 0 36 35" fill="none" xmlns="http://www.w3.org/2000/svg">
<path d="M35.0904 5.15683L18.9345 33.6611C18.6009 34.2496 17.744 34.253 17.4054 33.6674L0.929122 5.15958C0.560269 4.52138 1.11338 3.74834 1.84637 3.8776L18.0196 6.72991C18.1227 6.7481 18.2284 6.74793 18.3315 6.72938L34.1665 3.88169C34.8971 3.75032 35.4528 4.51737 35.0904 5.15683Z" fill="url(#paint0_linear_3_14)"/>
<path d="M27.852 15.3948L18.0994 29.6346C17.996 29.7856 17.8465 29.8987 17.6735 29.9568C17.5005 30.0148 17.3135 30.0143 17.1409 29.956C16.9682 29.8974 16.8194 29.7837 16.7169 29.6325C16.6144 29.4809 16.5639 29.3 16.573 29.1171L16.7169 22.5L10.6621 19.9057C10.5274 19.8769 10.402 19.8151 10.2968 19.7259C10.1916 19.6367 10.11 19.5227 10.0592 19.3941C10.0083 19.2655 9.98983 19.1262 10.0053 18.9886C10.0208 18.851 10.0698 18.7193 10.1479 18.6052L19.9006 4.36535C20.004 4.21429 20.1536 4.10122 20.3266 4.04325C20.4996 3.98528 20.6866 3.98558 20.8592 4.04415C21.0319 4.10269 21.1807 4.21628 21.2832 4.3677C21.3857 4.51909 21.4362 4.70002 21.427 4.88305V12L27.3379 14.0944C27.4725 14.1232 27.598 14.185 27.7033 14.2742C27.8085 14.3635 27.89 14.4775 27.9408 14.6061C27.9918 14.7347 28.0101 14.8739 27.9947 15.0115C27.9793 15.1491 27.9302 15.2807 27.852 15.3948Z" fill="#FACC15"/>
<path d="M20.5083 13.0001C21.8824 13.0001 23 13.9633 23 15.1542C23 15.5243 22.8853 15.8865 22.6783 16.2129C22.365 16.6897 21.8638 17.0427 21.2575 17.2107C21.1289 17.2489 20.9952 17.2696 20.8604 17.272C20.7986 17.2731 20.7373 17.2625 20.68 17.2408C20.6226 17.2191 20.5704 17.1867 20.5264 17.1457C20.4824 17.1046 20.4475 17.0556 20.4237 17.0016C20.3999 16.9475 20.3878 16.8895 20.3879 16.831C20.3879 16.583 20.596 16.3905 20.8604 16.3905C20.8789 16.3905 20.9178 16.3905 20.965 16.3734C21.3722 16.2667 21.694 16.047 21.8739 15.7547C21.9966 15.5702 22.0539 15.3654 22.0539 15.1542C22.0539 14.4555 21.3621 13.8833 20.5184 13.8833C20.2274 13.8837 19.9412 13.9534 19.686 14.086C19.2394 14.3238 18.975 14.7206 18.975 15.1542V18.8534C18.975 19.6032 18.529 20.2923 17.7899 20.6811C17.3928 20.8928 16.9462 21 16.4917 21C15.1182 21 14 20.0363 14 18.8454C14 18.4758 14.1153 18.1131 14.3217 17.7867C14.635 17.3099 15.1367 16.9569 15.7425 16.7894C15.9124 16.7451 16.0271 16.7281 16.1396 16.7281C16.4057 16.7281 16.6126 16.9227 16.6126 17.1686C16.6128 17.2271 16.6006 17.2851 16.5769 17.3392C16.5531 17.3932 16.5182 17.4422 16.4742 17.4833C16.4302 17.5243 16.378 17.5567 16.3206 17.5784C16.2633 17.6001 16.2019 17.6107 16.1402 17.6096C16.1211 17.6096 16.0822 17.6096 16.0356 17.6267C15.6278 17.7414 15.3066 17.9627 15.1266 18.2448C15.0034 18.4299 14.9466 18.6342 14.9466 18.8459C14.9466 19.5446 15.6385 20.1163 16.49 20.1163C16.7812 20.1161 17.0676 20.0466 17.323 19.9141C17.7691 19.6757 18.0334 19.279 18.0334 18.8459V15.1558C18.0334 14.4059 18.4795 13.7174 19.2185 13.3281C19.609 13.1095 20.0549 12.9961 20.5083 13.0001Z" fill="white"/>
<defs>
<linearGradient id="paint0_linear_3_14" x1="0.526842" y1="2.8589" x2="20.2854" y2="30.0554" gradientUnits="userSpaceOnUse">
<stop stop-color="#95EC69"/>
<stop offset="1" stop-color="#2BA245"/>
</linearGradient>
</defs>
</svg>
